<svg width="145" height="24" viewBox="0 0 145 24" fill="none" xmlns="http://www.w3.org/2000/svg">
<path d="M10 6H16M10 14H16M10 10H22M10 18H22M3 10H5C5.55228 10 6 9.55228 6 9V7C6 6.44772 5.55228 6 5 6H3C2.44772 6 2 6.44772 2 7V9C2 9.55228 2.44772 10 3 10ZM3 18H5C5.55228 18 6 17.5523 6 17V15C6 14.4477 5.55228 14 5 14H3C2.44772 14 2 14.4477 2 15V17C2 17.5523 2.44772 18 3 18Z" stroke="white" stroke-width="1.5" stroke-linecap="round"/>
<path d="M39.4 16.59C39.5467 16.59 39.6733 16.6467 39.78 16.76L40.84 17.91C40.2533 18.6367 39.53 19.1933 38.67 19.58C37.8167 19.9667 36.79 20.16 35.59 20.16C34.5167 20.16 33.55 19.9767 32.69 19.61C31.8367 19.2433 31.1067 18.7333 30.5 18.08C29.8933 17.4267 29.4267 16.6467 29.1 15.74C28.78 14.8333 28.62 13.8433 28.62 12.77C28.62 11.6833 28.8 10.69 29.16 9.79C29.52 8.88333 30.0267 8.10333 30.68 7.45C31.3333 6.79667 32.1133 6.29 33.02 5.93C33.9333 5.56333 34.94 5.38 36.04 5.38C37.1133 5.38 38.05 5.55333 38.85 5.9C39.6567 6.24 40.3467 6.69333 40.92 7.26L40.02 8.51C39.9667 8.59 39.8967 8.66 39.81 8.72C39.73 8.78 39.6167 8.81 39.47 8.81C39.3167 8.81 39.16 8.75 39 8.63C38.84 8.51 38.6367 8.38 38.39 8.24C38.1433 8.1 37.83 7.97 37.45 7.85C37.0767 7.73 36.6 7.67 36.02 7.67C35.34 7.67 34.7133 7.79 34.14 8.03C33.5733 8.26333 33.0833 8.6 32.67 9.04C32.2633 9.48 31.9433 10.0167 31.71 10.65C31.4833 11.2767 31.37 11.9833 31.37 12.77C31.37 13.5833 31.4833 14.3067 31.71 14.94C31.9433 15.5733 32.2567 16.1067 32.65 16.54C33.0433 16.9733 33.5067 17.3067 34.04 17.54C34.5733 17.7667 35.1467 17.88 35.76 17.88C36.1267 17.88 36.4567 17.86 36.75 17.82C37.05 17.78 37.3233 17.7167 37.57 17.63C37.8233 17.5433 38.06 17.4333 38.28 17.3C38.5067 17.16 38.73 16.99 38.95 16.79C39.0167 16.73 39.0867 16.6833 39.16 16.65C39.2333 16.61 39.3133 16.59 39.4 16.59ZM50.778 20H49.668C49.4346 20 49.2513 19.9667 49.118 19.9C48.9846 19.8267 48.8846 19.6833 48.818 19.47L48.598 18.74C48.338 18.9733 48.0813 19.18 47.828 19.36C47.5813 19.5333 47.3246 19.68 47.058 19.8C46.7913 19.92 46.508 20.01 46.208 20.07C45.908 20.13 45.5746 20.16 45.208 20.16C44.7746 20.16 44.3746 20.1033 44.008 19.99C43.6413 19.87 43.3246 19.6933 43.058 19.46C42.798 19.2267 42.5946 18.9367 42.448 18.59C42.3013 18.2433 42.228 17.84 42.228 17.38C42.228 16.9933 42.328 16.6133 42.528 16.24C42.7346 15.86 43.0746 15.52 43.548 15.22C44.0213 14.9133 44.6513 14.66 45.438 14.46C46.2246 14.26 47.2013 14.1467 48.368 14.12V13.52C48.368 12.8333 48.2213 12.3267 47.928 12C47.6413 11.6667 47.2213 11.5 46.668 11.5C46.268 11.5 45.9346 11.5467 45.668 11.64C45.4013 11.7333 45.168 11.84 44.968 11.96C44.7746 12.0733 44.5946 12.1767 44.428 12.27C44.2613 12.3633 44.078 12.41 43.878 12.41C43.7113 12.41 43.568 12.3667 43.448 12.28C43.328 12.1933 43.2313 12.0867 43.158 11.96L42.708 11.17C43.888 10.09 45.3113 9.55 46.978 9.55C47.578 9.55 48.1113 9.65 48.578 9.85C49.0513 10.0433 49.4513 10.3167 49.778 10.67C50.1046 11.0167 50.3513 11.4333 50.518 11.92C50.6913 12.4067 50.778 12.94 50.778 13.52V20ZM45.978 18.46C46.2313 18.46 46.4646 18.4367 46.678 18.39C46.8913 18.3433 47.0913 18.2733 47.278 18.18C47.4713 18.0867 47.6546 17.9733 47.828 17.84C48.008 17.7 48.188 17.5367 48.368 17.35V15.62C47.648 15.6533 47.0446 15.7167 46.558 15.81C46.078 15.8967 45.6913 16.01 45.398 16.15C45.1046 16.29 44.8946 16.4533 44.768 16.64C44.648 16.8267 44.588 17.03 44.588 17.25C44.588 17.6833 44.7146 17.9933 44.968 18.18C45.228 18.3667 45.5646 18.46 45.978 18.46ZM56.5767 20.16C55.6901 20.16 55.0067 19.91 54.5267 19.41C54.0467 18.9033 53.8067 18.2067 53.8067 17.32V11.59H52.7667C52.6334 11.59 52.5167 11.5467 52.4167 11.46C52.3234 11.3733 52.2767 11.2433 52.2767 11.07V10.09L53.9267 9.82L54.4467 7.02C54.4734 6.88667 54.5334 6.78333 54.6267 6.71C54.7267 6.63667 54.8501 6.6 54.9967 6.6H56.2767V9.83H58.9767V11.59H56.2767V17.15C56.2767 17.47 56.3567 17.72 56.5167 17.9C56.6767 18.08 56.8901 18.17 57.1567 18.17C57.3101 18.17 57.4367 18.1533 57.5367 18.12C57.6434 18.08 57.7334 18.04 57.8067 18C57.8867 17.96 57.9567 17.9233 58.0167 17.89C58.0767 17.85 58.1367 17.83 58.1967 17.83C58.2701 17.83 58.3301 17.85 58.3767 17.89C58.4234 17.9233 58.4734 17.9767 58.5267 18.05L59.2667 19.25C58.9067 19.55 58.4934 19.7767 58.0267 19.93C57.5601 20.0833 57.0767 20.16 56.5767 20.16ZM65.1811 9.58C65.8278 9.58 66.4211 9.68333 66.9611 9.89C67.5078 10.0967 67.9778 10.4 68.3711 10.8C68.7644 11.1933 69.0711 11.68 69.2911 12.26C69.5111 12.8333 69.6211 13.49 69.6211 14.23C69.6211 14.4167 69.6111 14.5733 69.5911 14.7C69.5778 14.82 69.5478 14.9167 69.5011 14.99C69.4611 15.0567 69.4044 15.1067 69.3311 15.14C69.2578 15.1667 69.1644 15.18 69.0511 15.18H62.7111C62.7844 16.2333 63.0678 17.0067 63.5611 17.5C64.0544 17.9933 64.7078 18.24 65.5211 18.24C65.9211 18.24 66.2644 18.1933 66.5511 18.1C66.8444 18.0067 67.0978 17.9033 67.3111 17.79C67.5311 17.6767 67.7211 17.5733 67.8811 17.48C68.0478 17.3867 68.2078 17.34 68.3611 17.34C68.4611 17.34 68.5478 17.36 68.6211 17.4C68.6944 17.44 68.7578 17.4967 68.8111 17.57L69.5311 18.47C69.2578 18.79 68.9511 19.06 68.6111 19.28C68.2711 19.4933 67.9144 19.6667 67.5411 19.8C67.1744 19.9267 66.7978 20.0167 66.4111 20.07C66.0311 20.1233 65.6611 20.15 65.3011 20.15C64.5878 20.15 63.9244 20.0333 63.3111 19.8C62.6978 19.56 62.1644 19.21 61.7111 18.75C61.2578 18.2833 60.9011 17.71 60.6411 17.03C60.3811 16.3433 60.2511 15.55 60.2511 14.65C60.2511 13.95 60.3644 13.2933 60.5911 12.68C60.8178 12.06 61.1411 11.5233 61.5611 11.07C61.9878 10.61 62.5044 10.2467 63.1111 9.98C63.7244 9.71333 64.4144 9.58 65.1811 9.58ZM65.2311 11.35C64.5111 11.35 63.9478 11.5533 63.5411 11.96C63.1344 12.3667 62.8744 12.9433 62.7611 13.69H67.4011C67.4011 13.37 67.3578 13.07 67.2711 12.79C67.1844 12.5033 67.0511 12.2533 66.8711 12.04C66.6911 11.8267 66.4644 11.66 66.1911 11.54C65.9178 11.4133 65.5978 11.35 65.2311 11.35ZM75.1747 9.56C75.6147 9.56 76.028 9.60667 76.4147 9.7C76.8014 9.78667 77.1547 9.91667 77.4747 10.09H80.4247V11.01C80.4247 11.1633 80.3847 11.2833 80.3047 11.37C80.2247 11.4567 80.088 11.5167 79.8947 11.55L78.9747 11.72C79.0414 11.8933 79.0914 12.0767 79.1247 12.27C79.1647 12.4633 79.1847 12.6667 79.1847 12.88C79.1847 13.3867 79.0814 13.8467 78.8747 14.26C78.6747 14.6667 78.3947 15.0133 78.0347 15.3C77.6814 15.5867 77.258 15.81 76.7647 15.97C76.278 16.1233 75.748 16.2 75.1747 16.2C74.788 16.2 74.4114 16.1633 74.0447 16.09C73.7247 16.2833 73.5647 16.5 73.5647 16.74C73.5647 16.9467 73.658 17.1 73.8447 17.2C74.038 17.2933 74.288 17.36 74.5947 17.4C74.908 17.44 75.2614 17.4667 75.6547 17.48C76.048 17.4867 76.4514 17.5067 76.8647 17.54C77.278 17.5733 77.6814 17.6333 78.0747 17.72C78.468 17.8 78.818 17.93 79.1247 18.11C79.438 18.29 79.688 18.5367 79.8747 18.85C80.068 19.1567 80.1647 19.5533 80.1647 20.04C80.1647 20.4933 80.0514 20.9333 79.8247 21.36C79.6047 21.7867 79.2814 22.1667 78.8547 22.5C78.4347 22.8333 77.918 23.1 77.3047 23.3C76.6914 23.5067 75.9914 23.61 75.2047 23.61C74.4247 23.61 73.748 23.5333 73.1747 23.38C72.6014 23.2333 72.1247 23.0333 71.7447 22.78C71.3714 22.5333 71.0914 22.2467 70.9047 21.92C70.718 21.5933 70.6247 21.2533 70.6247 20.9C70.6247 20.42 70.7714 20.0167 71.0647 19.69C71.358 19.3633 71.7647 19.1033 72.2847 18.91C72.0314 18.77 71.828 18.5833 71.6747 18.35C71.5214 18.1167 71.4447 17.8133 71.4447 17.44C71.4447 17.2867 71.4714 17.13 71.5247 16.97C71.578 16.8033 71.658 16.64 71.7647 16.48C71.878 16.32 72.018 16.17 72.1847 16.03C72.3514 15.8833 72.548 15.7533 72.7747 15.64C72.2547 15.36 71.8447 14.9867 71.5447 14.52C71.2514 14.0533 71.1047 13.5067 71.1047 12.88C71.1047 12.3733 71.2047 11.9167 71.4047 11.51C71.6114 11.0967 71.8947 10.7467 72.2547 10.46C72.6214 10.1667 73.0514 9.94333 73.5447 9.79C74.0447 9.63667 74.588 9.56 75.1747 9.56ZM77.8847 20.46C77.8847 20.26 77.8247 20.0967 77.7047 19.97C77.5847 19.8433 77.4214 19.7467 77.2147 19.68C77.008 19.6067 76.7647 19.5533 76.4847 19.52C76.2114 19.4867 75.918 19.4633 75.6047 19.45C75.298 19.43 74.978 19.4133 74.6447 19.4C74.318 19.38 74.0014 19.35 73.6947 19.31C73.4147 19.4633 73.188 19.6467 73.0147 19.86C72.848 20.0667 72.7647 20.3067 72.7647 20.58C72.7647 20.76 72.808 20.9267 72.8947 21.08C72.988 21.24 73.1314 21.3767 73.3247 21.49C73.5247 21.6033 73.7814 21.69 74.0947 21.75C74.408 21.8167 74.7914 21.85 75.2447 21.85C75.7047 21.85 76.1014 21.8133 76.4347 21.74C76.768 21.6733 77.0414 21.5767 77.2547 21.45C77.4747 21.33 77.6347 21.1833 77.7347 21.01C77.8347 20.8433 77.8847 20.66 77.8847 20.46ZM75.1747 14.62C75.4814 14.62 75.748 14.58 75.9747 14.5C76.2014 14.4133 76.388 14.2967 76.5347 14.15C76.688 14.0033 76.8014 13.8267 76.8747 13.62C76.9547 13.4133 76.9947 13.1867 76.9947 12.94C76.9947 12.4333 76.8414 12.0333 76.5347 11.74C76.2347 11.44 75.7814 11.29 75.1747 11.29C74.568 11.29 74.1114 11.44 73.8047 11.74C73.5047 12.0333 73.3547 12.4333 73.3547 12.94C73.3547 13.18 73.3914 13.4033 73.4647 13.61C73.5447 13.8167 73.658 13.9967 73.8047 14.15C73.958 14.2967 74.148 14.4133 74.3747 14.5C74.608 14.58 74.8747 14.62 75.1747 14.62ZM86.3563 9.58C87.1229 9.58 87.8163 9.70333 88.4363 9.95C89.0629 10.1967 89.5963 10.5467 90.0363 11C90.4763 11.4533 90.8163 12.0067 91.0563 12.66C91.2963 13.3133 91.4163 14.0433 91.4163 14.85C91.4163 15.6633 91.2963 16.3967 91.0563 17.05C90.8163 17.7033 90.4763 18.26 90.0363 18.72C89.5963 19.18 89.0629 19.5333 88.4363 19.78C87.8163 20.0267 87.1229 20.15 86.3563 20.15C85.5896 20.15 84.8929 20.0267 84.2663 19.78C83.6396 19.5333 83.1029 19.18 82.6563 18.72C82.2163 18.26 81.8729 17.7033 81.6263 17.05C81.3863 16.3967 81.2663 15.6633 81.2663 14.85C81.2663 14.0433 81.3863 13.3133 81.6263 12.66C81.8729 12.0067 82.2163 11.4533 82.6563 11C83.1029 10.5467 83.6396 10.1967 84.2663 9.95C84.8929 9.70333 85.5896 9.58 86.3563 9.58ZM86.3563 18.25C87.2096 18.25 87.8396 17.9633 88.2463 17.39C88.6596 16.8167 88.8663 15.9767 88.8663 14.87C88.8663 13.7633 88.6596 12.92 88.2463 12.34C87.8396 11.76 87.2096 11.47 86.3563 11.47C85.4896 11.47 84.8496 11.7633 84.4363 12.35C84.0229 12.93 83.8163 13.77 83.8163 14.87C83.8163 15.97 84.0229 16.81 84.4363 17.39C84.8496 17.9633 85.4896 18.25 86.3563 18.25ZM93.3434 20V9.74H94.7934C95.0468 9.74 95.2234 9.78667 95.3234 9.88C95.4234 9.97333 95.4901 10.1333 95.5234 10.36L95.6734 11.6C96.0401 10.9667 96.4701 10.4667 96.9634 10.1C97.4568 9.73333 98.0101 9.55 98.6234 9.55C99.1301 9.55 99.5501 9.66667 99.8834 9.9L99.5634 11.75C99.5434 11.87 99.5001 11.9567 99.4334 12.01C99.3668 12.0567 99.2768 12.08 99.1634 12.08C99.0634 12.08 98.9268 12.0567 98.7534 12.01C98.5801 11.9633 98.3501 11.94 98.0634 11.94C97.5501 11.94 97.1101 12.0833 96.7434 12.37C96.3768 12.65 96.0668 13.0633 95.8134 13.61V20H93.3434ZM104.138 9.74V20H101.668V9.74H104.138ZM104.508 6.75C104.508 6.96333 104.464 7.16333 104.378 7.35C104.291 7.53667 104.174 7.7 104.028 7.84C103.888 7.98 103.721 8.09333 103.528 8.18C103.334 8.26 103.128 8.3 102.908 8.3C102.694 8.3 102.491 8.26 102.298 8.18C102.111 8.09333 101.948 7.98 101.808 7.84C101.668 7.7 101.554 7.53667 101.468 7.35C101.388 7.16333 101.348 6.96333 101.348 6.75C101.348 6.53 101.388 6.32333 101.468 6.13C101.554 5.93667 101.668 5.77 101.808 5.63C101.948 5.49 102.111 5.38 102.298 5.3C102.491 5.21333 102.694 5.17 102.908 5.17C103.128 5.17 103.334 5.21333 103.528 5.3C103.721 5.38 103.888 5.49 104.028 5.63C104.174 5.77 104.291 5.93667 104.378 6.13C104.464 6.32333 104.508 6.53 104.508 6.75ZM111.177 9.58C111.824 9.58 112.417 9.68333 112.957 9.89C113.504 10.0967 113.974 10.4 114.367 10.8C114.761 11.1933 115.067 11.68 115.287 12.26C115.507 12.8333 115.617 13.49 115.617 14.23C115.617 14.4167 115.607 14.5733 115.587 14.7C115.574 14.82 115.544 14.9167 115.497 14.99C115.457 15.0567 115.401 15.1067 115.327 15.14C115.254 15.1667 115.161 15.18 115.047 15.18H108.707C108.781 16.2333 109.064 17.0067 109.557 17.5C110.051 17.9933 110.704 18.24 111.517 18.24C111.917 18.24 112.261 18.1933 112.547 18.1C112.841 18.0067 113.094 17.9033 113.307 17.79C113.527 17.6767 113.717 17.5733 113.877 17.48C114.044 17.3867 114.204 17.34 114.357 17.34C114.457 17.34 114.544 17.36 114.617 17.4C114.691 17.44 114.754 17.4967 114.807 17.57L115.527 18.47C115.254 18.79 114.947 19.06 114.607 19.28C114.267 19.4933 113.911 19.6667 113.537 19.8C113.171 19.9267 112.794 20.0167 112.407 20.07C112.027 20.1233 111.657 20.15 111.297 20.15C110.584 20.15 109.921 20.0333 109.307 19.8C108.694 19.56 108.161 19.21 107.707 18.75C107.254 18.2833 106.897 17.71 106.637 17.03C106.377 16.3433 106.247 15.55 106.247 14.65C106.247 13.95 106.361 13.2933 106.587 12.68C106.814 12.06 107.137 11.5233 107.557 11.07C107.984 10.61 108.501 10.2467 109.107 9.98C109.721 9.71333 110.411 9.58 111.177 9.58ZM111.227 11.35C110.507 11.35 109.944 11.5533 109.537 11.96C109.131 12.3667 108.871 12.9433 108.757 13.69H113.397C113.397 13.37 113.354 13.07 113.267 12.79C113.181 12.5033 113.047 12.2533 112.867 12.04C112.687 11.8267 112.461 11.66 112.187 11.54C111.914 11.4133 111.594 11.35 111.227 11.35ZM123.711 11.74C123.644 11.8467 123.574 11.9233 123.501 11.97C123.427 12.01 123.334 12.03 123.221 12.03C123.101 12.03 122.971 11.9967 122.831 11.93C122.697 11.8633 122.541 11.79 122.361 11.71C122.181 11.6233 121.974 11.5467 121.741 11.48C121.514 11.4133 121.244 11.38 120.931 11.38C120.444 11.38 120.061 11.4833 119.781 11.69C119.501 11.8967 119.361 12.1667 119.361 12.5C119.361 12.72 119.431 12.9067 119.571 13.06C119.717 13.2067 119.907 13.3367 120.141 13.45C120.381 13.5633 120.651 13.6667 120.951 13.76C121.251 13.8467 121.557 13.9433 121.871 14.05C122.184 14.1567 122.491 14.28 122.791 14.42C123.091 14.5533 123.357 14.7267 123.591 14.94C123.831 15.1467 124.021 15.3967 124.161 15.69C124.307 15.9833 124.381 16.3367 124.381 16.75C124.381 17.2433 124.291 17.7 124.111 18.12C123.931 18.5333 123.667 18.8933 123.321 19.2C122.974 19.5 122.544 19.7367 122.031 19.91C121.524 20.0767 120.941 20.16 120.281 20.16C119.927 20.16 119.581 20.1267 119.241 20.06C118.907 20 118.584 19.9133 118.271 19.8C117.964 19.6867 117.677 19.5533 117.411 19.4C117.151 19.2467 116.921 19.08 116.721 18.9L117.291 17.96C117.364 17.8467 117.451 17.76 117.551 17.7C117.651 17.64 117.777 17.61 117.931 17.61C118.084 17.61 118.227 17.6533 118.361 17.74C118.501 17.8267 118.661 17.92 118.841 18.02C119.021 18.12 119.231 18.2133 119.471 18.3C119.717 18.3867 120.027 18.43 120.401 18.43C120.694 18.43 120.944 18.3967 121.151 18.33C121.364 18.2567 121.537 18.1633 121.671 18.05C121.811 17.9367 121.911 17.8067 121.971 17.66C122.037 17.5067 122.071 17.35 122.071 17.19C122.071 16.95 121.997 16.7533 121.851 16.6C121.711 16.4467 121.521 16.3133 121.281 16.2C121.047 16.0867 120.777 15.9867 120.471 15.9C120.171 15.8067 119.861 15.7067 119.541 15.6C119.227 15.4933 118.917 15.37 118.611 15.23C118.311 15.0833 118.041 14.9 117.801 14.68C117.567 14.46 117.377 14.19 117.231 13.87C117.091 13.55 117.021 13.1633 117.021 12.71C117.021 12.29 117.104 11.89 117.271 11.51C117.437 11.13 117.681 10.8 118.001 10.52C118.327 10.2333 118.731 10.0067 119.211 9.84C119.697 9.66667 120.257 9.58 120.891 9.58C121.597 9.58 122.241 9.69667 122.821 9.93C123.401 10.1633 123.884 10.47 124.271 10.85L123.711 11.74Z" fill="white"/>
</svg>
