<svg width="105" height="46" viewBox="0 0 105 46" fill="none" xmlns="http://www.w3.org/2000/svg">
<rect x="10" y="10" width="85" height="26" rx="4" fill="#00A95D"/>
<path d="M22.6485 27.4833C22.8234 28.1259 22.4359 28.7865 21.783 28.9587C21.13 29.1309 20.4588 28.7495 20.2839 28.1068C20.1089 27.4642 20.4964 26.8036 21.1494 26.6314M22.6485 27.4833C22.4735 26.8406 21.8023 26.4592 21.1494 26.6314M22.6485 27.4833L30.3333 25.4566M21.1494 26.6314L19.0902 19.068C18.9153 18.4253 18.2441 18.044 17.5911 18.2161L17 18.372M24.2946 19.5662L25.4769 19.2544M23.9467 25.2702L28.6759 24.023C29.3288 23.8508 29.7163 23.1903 29.5413 22.5476L28.2742 17.8932C28.0992 17.2505 27.4281 16.8692 26.7751 17.0413L22.0459 18.2885C21.393 18.4607 21.0055 19.1213 21.1804 19.7639L22.4476 24.4183C22.6226 25.061 23.2937 25.4424 23.9467 25.2702Z" stroke="white" stroke-linecap="round" stroke-linejoin="round"/>
<path d="M37.37 19.835C37.4567 19.835 37.52 19.8467 37.56 19.87C37.6033 19.89 37.6517 19.9333 37.705 20L41.855 25.4C41.845 25.3133 41.8383 25.23 41.835 25.15C41.8317 25.0667 41.83 24.9867 41.83 24.91V19.835H42.68V27H42.19C42.1133 27 42.0483 26.9867 41.995 26.96C41.945 26.9333 41.895 26.8883 41.845 26.825L37.7 21.43C37.7067 21.5133 37.7117 21.595 37.715 21.675C37.7183 21.755 37.72 21.8283 37.72 21.895V27H36.87V19.835H37.37ZM46.2936 21.855C46.5969 21.855 46.8769 21.9067 47.1336 22.01C47.3903 22.11 47.6119 22.2567 47.7986 22.45C47.9853 22.64 48.1303 22.8767 48.2336 23.16C48.3403 23.44 48.3936 23.76 48.3936 24.12C48.3936 24.26 48.3786 24.3533 48.3486 24.4C48.3186 24.4467 48.2619 24.47 48.1786 24.47H44.8086C44.8153 24.79 44.8586 25.0683 44.9386 25.305C45.0186 25.5417 45.1286 25.74 45.2686 25.9C45.4086 26.0567 45.5753 26.175 45.7686 26.255C45.9619 26.3317 46.1786 26.37 46.4186 26.37C46.6419 26.37 46.8336 26.345 46.9936 26.295C47.1569 26.2417 47.2969 26.185 47.4136 26.125C47.5303 26.065 47.6269 26.01 47.7036 25.96C47.7836 25.9067 47.8519 25.88 47.9086 25.88C47.9819 25.88 48.0386 25.9083 48.0786 25.965L48.3286 26.29C48.2186 26.4233 48.0869 26.54 47.9336 26.64C47.7803 26.7367 47.6153 26.8167 47.4386 26.88C47.2653 26.9433 47.0853 26.99 46.8986 27.02C46.7119 27.0533 46.5269 27.07 46.3436 27.07C45.9936 27.07 45.6703 27.0117 45.3736 26.895C45.0803 26.775 44.8253 26.6017 44.6086 26.375C44.3953 26.145 44.2286 25.8617 44.1086 25.525C43.9886 25.1883 43.9286 24.8017 43.9286 24.365C43.9286 24.0117 43.9819 23.6817 44.0886 23.375C44.1986 23.0683 44.3553 22.8033 44.5586 22.58C44.7619 22.3533 45.0103 22.1767 45.3036 22.05C45.5969 21.92 45.9269 21.855 46.2936 21.855ZM46.3136 22.51C45.8836 22.51 45.5453 22.635 45.2986 22.885C45.0519 23.1317 44.8986 23.475 44.8386 23.915H47.5936C47.5936 23.7083 47.5653 23.52 47.5086 23.35C47.4519 23.1767 47.3686 23.0283 47.2586 22.905C47.1486 22.7783 47.0136 22.6817 46.8536 22.615C46.6969 22.545 46.5169 22.51 46.3136 22.51ZM48.8727 21.935H49.5727C49.6461 21.935 49.7061 21.9533 49.7527 21.99C49.7994 22.0267 49.8311 22.07 49.8477 22.12L50.8177 25.38C50.8444 25.5 50.8694 25.6167 50.8927 25.73C50.9161 25.84 50.9361 25.9517 50.9527 26.065C50.9794 25.9517 51.0094 25.84 51.0427 25.73C51.0761 25.6167 51.1111 25.5 51.1477 25.38L52.2177 22.1C52.2344 22.05 52.2627 22.0083 52.3027 21.975C52.3461 21.9417 52.3994 21.925 52.4627 21.925H52.8477C52.9144 21.925 52.9694 21.9417 53.0127 21.975C53.0561 22.0083 53.0861 22.05 53.1027 22.1L54.1477 25.38C54.1844 25.4967 54.2161 25.6117 54.2427 25.725C54.2727 25.8383 54.3011 25.95 54.3277 26.06C54.3444 25.95 54.3661 25.835 54.3927 25.715C54.4194 25.595 54.4477 25.4833 54.4777 25.38L55.4677 22.12C55.4844 22.0667 55.5161 22.0233 55.5627 21.99C55.6094 21.9533 55.6644 21.935 55.7277 21.935H56.3977L54.7577 27H54.0527C53.9661 27 53.9061 26.9433 53.8727 26.83L52.7527 23.395C52.7261 23.3183 52.7044 23.2417 52.6877 23.165C52.6711 23.085 52.6544 23.0067 52.6377 22.93C52.6211 23.0067 52.6044 23.085 52.5877 23.165C52.5711 23.245 52.5494 23.3233 52.5227 23.4L51.3877 26.83C51.3511 26.9433 51.2827 27 51.1827 27H50.5127L48.8727 21.935ZM65.1576 27H64.4076C64.3209 27 64.2509 26.9783 64.1976 26.935C64.1442 26.8917 64.1042 26.8367 64.0776 26.77L63.4076 25.04H60.1926L59.5226 26.77C59.4992 26.83 59.4592 26.8833 59.4026 26.93C59.3459 26.9767 59.2759 27 59.1926 27H58.4426L61.3076 19.835H62.2926L65.1576 27ZM60.4626 24.34H63.1376L62.0126 21.425C61.9392 21.245 61.8676 21.02 61.7976 20.75C61.7609 20.8867 61.7242 21.0133 61.6876 21.13C61.6542 21.2433 61.6209 21.3433 61.5876 21.43L60.4626 24.34ZM65.9195 27V21.935H66.4295C66.5261 21.935 66.5928 21.9533 66.6295 21.99C66.6661 22.0267 66.6911 22.09 66.7045 22.18L66.7645 22.97C66.9378 22.6167 67.1511 22.3417 67.4045 22.145C67.6611 21.945 67.9611 21.845 68.3045 21.845C68.4445 21.845 68.5711 21.8617 68.6845 21.895C68.7978 21.925 68.9028 21.9683 68.9995 22.025L68.8845 22.69C68.8611 22.7733 68.8095 22.815 68.7295 22.815C68.6828 22.815 68.6111 22.8 68.5145 22.77C68.4178 22.7367 68.2828 22.72 68.1095 22.72C67.7995 22.72 67.5395 22.81 67.3295 22.99C67.1228 23.17 66.9495 23.4317 66.8095 23.775V27H65.9195ZM70.9427 21.935V27H70.0527V21.935H70.9427ZM71.1427 20.345C71.1427 20.4317 71.1243 20.5133 71.0877 20.59C71.0543 20.6633 71.0077 20.73 70.9477 20.79C70.891 20.8467 70.8243 20.8917 70.7477 20.925C70.671 20.9583 70.5893 20.975 70.5027 20.975C70.416 20.975 70.3343 20.9583 70.2577 20.925C70.1843 20.8917 70.1177 20.8467 70.0577 20.79C70.001 20.73 69.956 20.6633 69.9227 20.59C69.8893 20.5133 69.8727 20.4317 69.8727 20.345C69.8727 20.2583 69.8893 20.1767 69.9227 20.1C69.956 20.02 70.001 19.9517 70.0577 19.895C70.1177 19.835 70.1843 19.7883 70.2577 19.755C70.3343 19.7217 70.416 19.705 70.5027 19.705C70.5893 19.705 70.671 19.7217 70.7477 19.755C70.8243 19.7883 70.891 19.835 70.9477 19.895C71.0077 19.9517 71.0543 20.02 71.0877 20.1C71.1243 20.1767 71.1427 20.2583 71.1427 20.345ZM71.8713 21.935H72.6013C72.6713 21.935 72.7296 21.9533 72.7763 21.99C72.8229 22.0267 72.8563 22.07 72.8763 22.12L74.1613 25.38C74.2079 25.5 74.2446 25.62 74.2713 25.74C74.2979 25.86 74.3229 25.9783 74.3463 26.095C74.3729 25.9783 74.4013 25.86 74.4313 25.74C74.4613 25.62 74.4996 25.5 74.5463 25.38L75.8463 22.12C75.8663 22.0667 75.8979 22.0233 75.9413 21.99C75.9879 21.9533 76.0446 21.935 76.1113 21.935H76.8062L74.7413 27H73.9363L71.8713 21.935ZM81.3484 27H80.9534C80.8668 27 80.7968 26.9867 80.7434 26.96C80.6901 26.9333 80.6551 26.8767 80.6384 26.79L80.5384 26.32C80.4051 26.44 80.2751 26.5483 80.1484 26.645C80.0218 26.7383 79.8884 26.8183 79.7484 26.885C79.6084 26.9483 79.4584 26.9967 79.2984 27.03C79.1418 27.0633 78.9668 27.08 78.7734 27.08C78.5768 27.08 78.3918 27.0533 78.2184 27C78.0484 26.9433 77.9001 26.86 77.7734 26.75C77.6468 26.64 77.5451 26.5017 77.4684 26.335C77.3951 26.165 77.3584 25.965 77.3584 25.735C77.3584 25.535 77.4134 25.3433 77.5234 25.16C77.6334 24.9733 77.8101 24.8083 78.0534 24.665C78.3001 24.5217 78.6218 24.405 79.0184 24.315C79.4151 24.2217 79.9001 24.1683 80.4734 24.155V23.76C80.4734 23.3667 80.3884 23.07 80.2184 22.87C80.0518 22.6667 79.8034 22.565 79.4734 22.565C79.2568 22.565 79.0734 22.5933 78.9234 22.65C78.7768 22.7033 78.6484 22.765 78.5384 22.835C78.4318 22.9017 78.3384 22.9633 78.2584 23.02C78.1818 23.0733 78.1051 23.1 78.0284 23.1C77.9684 23.1 77.9151 23.085 77.8684 23.055C77.8251 23.0217 77.7901 22.9817 77.7634 22.935L77.6034 22.65C77.8834 22.38 78.1851 22.1783 78.5084 22.045C78.8318 21.9117 79.1901 21.845 79.5834 21.845C79.8668 21.845 80.1184 21.8917 80.3384 21.985C80.5584 22.0783 80.7434 22.2083 80.8934 22.375C81.0434 22.5417 81.1568 22.7433 81.2334 22.98C81.3101 23.2167 81.3484 23.4767 81.3484 23.76V27ZM79.0384 26.455C79.1951 26.455 79.3384 26.44 79.4684 26.41C79.5984 26.3767 79.7201 26.3317 79.8334 26.275C79.9501 26.215 80.0601 26.1433 80.1634 26.06C80.2701 25.9767 80.3734 25.8817 80.4734 25.775V24.72C80.0634 24.7333 79.7151 24.7667 79.4284 24.82C79.1418 24.87 78.9084 24.9367 78.7284 25.02C78.5484 25.1033 78.4168 25.2017 78.3334 25.315C78.2534 25.4283 78.2134 25.555 78.2134 25.695C78.2134 25.8283 78.2351 25.9433 78.2784 26.04C78.3218 26.1367 78.3801 26.2167 78.4534 26.28C78.5268 26.34 78.6134 26.385 78.7134 26.415C78.8134 26.4417 78.9218 26.455 79.0384 26.455ZM83.6868 19.635V27H82.7968V19.635H83.6868ZM88.1554 22.77C88.1154 22.8433 88.0537 22.88 87.9704 22.88C87.9204 22.88 87.8637 22.8617 87.8004 22.825C87.7371 22.7883 87.6587 22.7483 87.5654 22.705C87.4754 22.6583 87.3671 22.6167 87.2404 22.58C87.1137 22.54 86.9637 22.52 86.7904 22.52C86.6404 22.52 86.5054 22.54 86.3854 22.58C86.2654 22.6167 86.1621 22.6683 86.0754 22.735C85.9921 22.8017 85.9271 22.88 85.8804 22.97C85.8371 23.0567 85.8154 23.1517 85.8154 23.255C85.8154 23.385 85.8521 23.4933 85.9254 23.58C86.0021 23.6667 86.1021 23.7417 86.2254 23.805C86.3487 23.8683 86.4887 23.925 86.6454 23.975C86.8021 24.0217 86.9621 24.0733 87.1254 24.13C87.2921 24.1833 87.4537 24.2433 87.6104 24.31C87.7671 24.3767 87.9071 24.46 88.0304 24.56C88.1537 24.66 88.2521 24.7833 88.3254 24.93C88.4021 25.0733 88.4404 25.2467 88.4404 25.45C88.4404 25.6833 88.3987 25.9 88.3154 26.1C88.2321 26.2967 88.1087 26.4683 87.9454 26.615C87.7821 26.7583 87.5821 26.8717 87.3454 26.955C87.1087 27.0383 86.8354 27.08 86.5254 27.08C86.1721 27.08 85.8521 27.0233 85.5654 26.91C85.2787 26.7933 85.0354 26.645 84.8354 26.465L85.0454 26.125C85.0721 26.0817 85.1037 26.0483 85.1404 26.025C85.1771 26.0017 85.2254 25.99 85.2854 25.99C85.3454 25.99 85.4087 26.0133 85.4754 26.06C85.5421 26.1067 85.6221 26.1583 85.7154 26.215C85.8121 26.2717 85.9271 26.3233 86.0604 26.37C86.1971 26.4167 86.3671 26.44 86.5704 26.44C86.7437 26.44 86.8954 26.4183 87.0254 26.375C87.1554 26.3283 87.2637 26.2667 87.3504 26.19C87.4371 26.1133 87.5004 26.025 87.5404 25.925C87.5837 25.825 87.6054 25.7183 87.6054 25.605C87.6054 25.465 87.5671 25.35 87.4904 25.26C87.4171 25.1667 87.3187 25.0883 87.1954 25.025C87.0721 24.9583 86.9304 24.9017 86.7704 24.855C86.6137 24.805 86.4521 24.7533 86.2854 24.7C86.1221 24.6467 85.9604 24.5867 85.8004 24.52C85.6437 24.45 85.5037 24.3633 85.3804 24.26C85.2571 24.1567 85.1571 24.03 85.0804 23.88C85.0071 23.7267 84.9704 23.5417 84.9704 23.325C84.9704 23.1317 85.0104 22.9467 85.0904 22.77C85.1704 22.59 85.2871 22.4333 85.4404 22.3C85.5937 22.1633 85.7821 22.055 86.0054 21.975C86.2287 21.895 86.4837 21.855 86.7704 21.855C87.1037 21.855 87.4021 21.9083 87.6654 22.015C87.9321 22.1183 88.1621 22.2617 88.3554 22.445L88.1554 22.77Z" fill="white"/>
</svg>
