<svg width="45" height="12" viewBox="0 0 45 12" fill="none" xmlns="http://www.w3.org/2000/svg">
<path d="M5.01641 1.63571C5.41875 0.788099 6.58125 0.788098 6.98359 1.6357L7.67895 3.10059C7.83872 3.43717 8.14755 3.67047 8.50481 3.72444L10.0597 3.95935C10.9593 4.09527 11.3186 5.24477 10.6676 5.90454L9.54246 7.0448C9.28394 7.30679 9.16598 7.68427 9.22701 8.05421L9.49261 9.66427C9.64629 10.5959 8.70581 11.3063 7.90112 10.8665L6.51041 10.1063C6.19087 9.93164 5.80913 9.93164 5.48959 10.1063L4.09888 10.8665C3.2942 11.3063 2.35371 10.5959 2.50739 9.66428L2.77299 8.05421C2.83402 7.68427 2.71606 7.30679 2.45754 7.0448L1.33244 5.90454C0.681433 5.24477 1.04066 4.09527 1.94033 3.95935L3.49519 3.72444C3.85244 3.67047 4.16128 3.43717 4.32105 3.10059L5.01641 1.63571Z" fill="#FFC000"/>
<path d="M16.0164 1.63571C16.4187 0.788099 17.5812 0.788098 17.9836 1.6357L18.6789 3.10059C18.8387 3.43717 19.1476 3.67047 19.5048 3.72444L21.0597 3.95935C21.9593 4.09527 22.3186 5.24477 21.6676 5.90454L20.5425 7.0448C20.2839 7.30679 20.166 7.68427 20.227 8.05421L20.4926 9.66427C20.6463 10.5959 19.7058 11.3063 18.9011 10.8665L17.5104 10.1063C17.1909 9.93164 16.8091 9.93164 16.4896 10.1063L15.0989 10.8665C14.2942 11.3063 13.3537 10.5959 13.5074 9.66428L13.773 8.05421C13.834 7.68427 13.7161 7.30679 13.4575 7.0448L12.3324 5.90454C11.6814 5.24477 12.0407 4.09527 12.9403 3.95935L14.4952 3.72444C14.8524 3.67047 15.1613 3.43717 15.3211 3.10059L16.0164 1.63571Z" fill="#FFC000"/>
<path d="M27.0164 1.63571C27.4187 0.788099 28.5812 0.788098 28.9836 1.6357L29.6789 3.10059C29.8387 3.43717 30.1476 3.67047 30.5048 3.72444L32.0597 3.95935C32.9593 4.09527 33.3186 5.24477 32.6676 5.90454L31.5425 7.0448C31.2839 7.30679 31.166 7.68427 31.227 8.05421L31.4926 9.66427C31.6463 10.5959 30.7058 11.3063 29.9011 10.8665L28.5104 10.1063C28.1909 9.93164 27.8091 9.93164 27.4896 10.1063L26.0989 10.8665C25.2942 11.3063 24.3537 10.5959 24.5074 9.66428L24.773 8.05421C24.834 7.68427 24.7161 7.30679 24.4575 7.0448L23.3324 5.90454C22.6814 5.24477 23.0407 4.09527 23.9403 3.95935L25.4952 3.72444C25.8524 3.67047 26.1613 3.43717 26.3211 3.10059L27.0164 1.63571Z" fill="#FFC000"/>
<path d="M38.0164 1.63571C38.4187 0.788099 39.5812 0.788098 39.9836 1.6357L40.6789 3.10059C40.8387 3.43717 41.1476 3.67047 41.5048 3.72444L43.0597 3.95935C43.9593 4.09527 44.3186 5.24477 43.6676 5.90454L42.5425 7.0448C42.2839 7.30679 42.166 7.68427 42.227 8.05421L42.4926 9.66427C42.6463 10.5959 41.7058 11.3063 40.9011 10.8665L39.5104 10.1063C39.1909 9.93164 38.8091 9.93164 38.4896 10.1063L37.0989 10.8665C36.2942 11.3063 35.3537 10.5959 35.5074 9.66428L35.773 8.05421C35.834 7.68427 35.7161 7.30679 35.4575 7.0448L34.3324 5.90454C33.6814 5.24477 34.0407 4.09527 34.9403 3.95935L36.4952 3.72444C36.8524 3.67047 37.1613 3.43717 37.3211 3.10059L38.0164 1.63571Z" fill="#FFC000"/>
</svg>
